<svg width="413" height="52" viewBox="0 0 513 62" fill="none" xmlns="http://www.w3.org/2000/svg">
<rect opacity="0.7" x="173" y="19" width="180" height="31" rx="15" fill="#FE8888"/>
<path d="M0.181818 11.6534V2.81818H46.6023V11.6534H28.6193V61H18.1648V11.6534H0.181818ZM65.3807 35.4318V61H55.0966V2.81818H65.1534V24.7784H65.6648C66.6875 22.3163 68.2689 20.375 70.4091 18.9545C72.5682 17.5152 75.3144 16.7955 78.6477 16.7955C81.678 16.7955 84.3201 17.4299 86.5739 18.6989C88.8277 19.9678 90.5701 21.8239 91.8011 24.267C93.0511 26.7102 93.6761 29.6932 93.6761 33.2159V61H83.392V34.8068C83.392 31.8712 82.6345 29.589 81.1193 27.9602C79.6231 26.3125 77.5208 25.4886 74.8125 25.4886C72.9943 25.4886 71.3655 25.8864 69.9261 26.6818C68.5057 27.4583 67.3883 28.5852 66.5739 30.0625C65.7784 31.5398 65.3807 33.3295 65.3807 35.4318ZM123.477 61.8523C119.102 61.8523 115.324 60.9432 112.142 59.125C108.979 57.2879 106.545 54.6932 104.841 51.3409C103.136 47.9697 102.284 44.0019 102.284 39.4375C102.284 34.9489 103.136 31.0095 104.841 27.6193C106.564 24.2102 108.97 21.5587 112.057 19.6648C115.144 17.7519 118.771 16.7955 122.938 16.7955C125.627 16.7955 128.165 17.2311 130.551 18.1023C132.956 18.9545 135.078 20.2803 136.915 22.0795C138.771 23.8788 140.229 26.1705 141.29 28.9545C142.35 31.7197 142.881 35.0152 142.881 38.8409V41.9943H107.114V35.0625H133.023C133.004 33.0928 132.578 31.3409 131.744 29.8068C130.911 28.2538 129.746 27.0322 128.25 26.142C126.773 25.2519 125.049 24.8068 123.08 24.8068C120.977 24.8068 119.131 25.3182 117.54 26.3409C115.949 27.3447 114.708 28.6705 113.818 30.3182C112.947 31.947 112.502 33.7367 112.483 35.6875V41.7386C112.483 44.2765 112.947 46.4545 113.875 48.2727C114.803 50.072 116.1 51.4545 117.767 52.4205C119.434 53.3674 121.384 53.8409 123.619 53.8409C125.116 53.8409 126.47 53.6326 127.682 53.2159C128.894 52.7803 129.945 52.1458 130.835 51.3125C131.725 50.4792 132.398 49.447 132.852 48.2159L142.455 49.2955C141.848 51.8333 140.693 54.0492 138.989 55.9432C137.303 57.8182 135.144 59.2765 132.511 60.3182C129.879 61.3409 126.867 61.8523 123.477 61.8523ZM191.723 61V2.81818H213.541C218.011 2.81818 221.761 3.5947 224.791 5.14773C227.84 6.70076 230.142 8.87879 231.695 11.6818C233.267 14.4659 234.053 17.714 234.053 21.4261C234.053 25.1572 233.257 28.3958 231.666 31.142C230.094 33.8693 227.774 35.9811 224.706 37.4773C221.638 38.9545 217.869 39.6932 213.399 39.6932H197.859V30.9432H211.979C214.592 30.9432 216.732 30.5833 218.399 29.8636C220.066 29.125 221.297 28.0549 222.092 26.6534C222.907 25.233 223.314 23.4905 223.314 21.4261C223.314 19.3617 222.907 17.6004 222.092 16.142C221.278 14.6648 220.037 13.5473 218.371 12.7898C216.704 12.0133 214.554 11.625 211.922 11.625H202.263V61H191.723ZM221.78 34.6364L236.183 61H224.422L210.274 34.6364H221.78ZM261.993 61.8523C257.618 61.8523 253.839 60.9432 250.658 59.125C247.495 57.2879 245.061 54.6932 243.357 51.3409C241.652 47.9697 240.8 44.0019 240.8 39.4375C240.8 34.9489 241.652 31.0095 243.357 27.6193C245.08 24.2102 247.485 21.5587 250.572 19.6648C253.66 17.7519 257.286 16.7955 261.453 16.7955C264.143 16.7955 266.68 17.2311 269.067 18.1023C271.472 18.9545 273.593 20.2803 275.43 22.0795C277.286 23.8788 278.745 26.1705 279.805 28.9545C280.866 31.7197 281.396 35.0152 281.396 38.8409V41.9943H245.629V35.0625H271.538C271.519 33.0928 271.093 31.3409 270.26 29.8068C269.427 28.2538 268.262 27.0322 266.766 26.142C265.288 25.2519 263.565 24.8068 261.595 24.8068C259.493 24.8068 257.646 25.3182 256.055 26.3409C254.464 27.3447 253.224 28.6705 252.334 30.3182C251.463 31.947 251.018 33.7367 250.999 35.6875V41.7386C250.999 44.2765 251.463 46.4545 252.391 48.2727C253.319 50.072 254.616 51.4545 256.283 52.4205C257.949 53.3674 259.9 53.8409 262.135 53.8409C263.631 53.8409 264.985 53.6326 266.197 53.2159C267.41 52.7803 268.461 52.1458 269.351 51.3125C270.241 50.4792 270.913 49.447 271.368 48.2159L280.97 49.2955C280.364 51.8333 279.209 54.0492 277.504 55.9432C275.819 57.8182 273.66 59.2765 271.027 60.3182C268.394 61.3409 265.383 61.8523 261.993 61.8523ZM306.29 61.767C302.862 61.767 299.794 60.8864 297.085 59.125C294.377 57.3636 292.237 54.8068 290.665 51.4545C289.093 48.1023 288.307 44.0303 288.307 39.2386C288.307 34.3902 289.102 30.2992 290.693 26.9659C292.303 23.6136 294.472 21.0852 297.199 19.3807C299.926 17.6572 302.966 16.7955 306.318 16.7955C308.875 16.7955 310.977 17.2311 312.625 18.1023C314.273 18.9545 315.58 19.9867 316.545 21.1989C317.511 22.392 318.259 23.5189 318.79 24.5795H319.216V2.81818H329.528V61H319.415V54.125H318.79C318.259 55.1856 317.492 56.3125 316.489 57.5057C315.485 58.6799 314.159 59.6837 312.511 60.517C310.864 61.3504 308.79 61.767 306.29 61.767ZM309.159 53.3295C311.337 53.3295 313.193 52.7424 314.727 51.5682C316.261 50.375 317.426 48.7178 318.222 46.5966C319.017 44.4754 319.415 42.0038 319.415 39.1818C319.415 36.3598 319.017 33.9072 318.222 31.8239C317.445 29.7405 316.29 28.1212 314.756 26.9659C313.241 25.8106 311.375 25.233 309.159 25.233C306.867 25.233 304.955 25.8295 303.42 27.0227C301.886 28.2159 300.731 29.8636 299.955 31.9659C299.178 34.0682 298.79 36.4735 298.79 39.1818C298.79 41.9091 299.178 44.3428 299.955 46.483C300.75 48.6042 301.915 50.2803 303.449 51.5114C305.002 52.7235 306.905 53.3295 309.159 53.3295ZM380.629 61V2.81818H391.169V52.1648H416.794V61H380.629ZM425.487 61V17.3636H435.771V61H425.487ZM430.658 11.1705C429.029 11.1705 427.627 10.6307 426.453 9.55114C425.279 8.45265 424.692 7.13636 424.692 5.60227C424.692 4.04924 425.279 2.73295 426.453 1.65341C427.627 0.554922 429.029 0.00568008 430.658 0.00568008C432.305 0.00568008 433.707 0.554922 434.862 1.65341C436.036 2.73295 436.624 4.04924 436.624 5.60227C436.624 7.13636 436.036 8.45265 434.862 9.55114C433.707 10.6307 432.305 11.1705 430.658 11.1705ZM480.835 28.8977L471.46 29.9205C471.195 28.9735 470.731 28.0833 470.068 27.25C469.424 26.4167 468.553 25.7443 467.455 25.233C466.356 24.7216 465.011 24.4659 463.42 24.4659C461.28 24.4659 459.481 24.9299 458.023 25.858C456.583 26.786 455.873 27.9886 455.892 29.4659C455.873 30.7348 456.337 31.767 457.284 32.5625C458.25 33.358 459.841 34.0114 462.057 34.5227L469.5 36.1136C473.629 37.0038 476.697 38.4148 478.705 40.3466C480.731 42.2784 481.754 44.8068 481.773 47.9318C481.754 50.678 480.949 53.1023 479.358 55.2045C477.786 57.2879 475.598 58.9167 472.795 60.0909C469.992 61.2652 466.773 61.8523 463.136 61.8523C457.795 61.8523 453.496 60.7348 450.239 58.5C446.981 56.2462 445.04 53.1117 444.415 49.0966L454.443 48.1307C454.898 50.1004 455.864 51.5871 457.341 52.5909C458.818 53.5947 460.741 54.0966 463.108 54.0966C465.551 54.0966 467.511 53.5947 468.989 52.5909C470.485 51.5871 471.233 50.3466 471.233 48.8693C471.233 47.6193 470.75 46.5871 469.784 45.7727C468.837 44.9583 467.36 44.3333 465.352 43.8977L457.909 42.3352C453.723 41.464 450.627 39.9962 448.619 37.9318C446.612 35.8485 445.617 33.2159 445.636 30.0341C445.617 27.3447 446.347 25.0152 447.824 23.0455C449.32 21.0568 451.394 19.5227 454.045 18.4432C456.716 17.3447 459.794 16.7955 463.278 16.7955C468.392 16.7955 472.417 17.8845 475.352 20.0625C478.307 22.2405 480.134 25.1856 480.835 28.8977ZM512.043 17.3636V25.3182H486.957V17.3636H512.043ZM493.151 6.90909H503.435V47.875C503.435 49.2576 503.643 50.3182 504.06 51.0568C504.495 51.7765 505.063 52.2689 505.764 52.5341C506.465 52.7992 507.241 52.9318 508.094 52.9318C508.738 52.9318 509.325 52.8845 509.855 52.7898C510.404 52.6951 510.821 52.6098 511.105 52.5341L512.838 60.5739C512.289 60.7633 511.503 60.9716 510.48 61.1989C509.476 61.4261 508.245 61.5587 506.787 61.5966C504.211 61.6723 501.891 61.2841 499.827 60.4318C497.762 59.5606 496.124 58.2159 494.912 56.3977C493.719 54.5795 493.132 52.3068 493.151 49.5795V6.90909Z" fill="black"/>
</svg>
