<svg width="329" height="75" viewBox="0 0 329 75" fill="none" xmlns="http://www.w3.org/2000/svg">
<rect opacity="0.7" y="19" width="329" height="48" rx="15" fill="#FDFD96"/>
<path d="M29.5128 73H15.4503L41.054 0.272725H57.3182L82.9574 73H68.8949L49.4702 15.1875H48.902L29.5128 73ZM29.9744 44.4844H68.3267V55.0668H29.9744V44.4844ZM92.5366 73V0.272725H105.392V27.4744H105.924C106.587 26.1487 107.522 24.7401 108.73 23.2486C109.937 21.7334 111.571 20.4432 113.63 19.3778C115.69 18.2888 118.318 17.7443 121.514 17.7443C125.728 17.7443 129.528 18.8215 132.913 20.9759C136.322 23.1065 139.021 26.267 141.01 30.4574C143.022 34.6241 144.028 39.7377 144.028 45.7983C144.028 51.7879 143.046 56.8778 141.081 61.0682C139.116 65.2585 136.44 68.4545 133.055 70.6562C129.67 72.858 125.834 73.9588 121.549 73.9588C118.424 73.9588 115.832 73.438 113.772 72.3963C111.713 71.3546 110.056 70.0999 108.801 68.6321C107.57 67.1406 106.611 65.732 105.924 64.4062H105.179V73H92.5366ZM105.143 45.7273C105.143 49.2547 105.64 52.3442 106.635 54.9957C107.653 57.6473 109.109 59.7187 111.002 61.2102C112.92 62.678 115.24 63.4119 117.963 63.4119C120.804 63.4119 123.183 62.6544 125.1 61.1392C127.018 59.6004 128.462 57.5052 129.433 54.8537C130.427 52.1785 130.924 49.1364 130.924 45.7273C130.924 42.3419 130.439 39.3352 129.468 36.7074C128.498 34.0795 127.054 32.0199 125.136 30.5284C123.218 29.0369 120.827 28.2912 117.963 28.2912C115.217 28.2912 112.885 29.0133 110.967 30.4574C109.049 31.9015 107.593 33.9257 106.599 36.5298C105.628 39.134 105.143 42.1998 105.143 45.7273ZM178.749 74.0653C173.423 74.0653 168.806 72.8935 164.9 70.5497C160.994 68.206 157.963 64.9271 155.809 60.7131C153.678 56.4991 152.613 51.5748 152.613 45.9403C152.613 40.3059 153.678 35.3698 155.809 31.1321C157.963 26.8944 160.994 23.6037 164.9 21.2599C168.806 18.9162 173.423 17.7443 178.749 17.7443C184.076 17.7443 188.692 18.9162 192.599 21.2599C196.505 23.6037 199.523 26.8944 201.654 31.1321C203.808 35.3698 204.886 40.3059 204.886 45.9403C204.886 51.5748 203.808 56.4991 201.654 60.7131C199.523 64.9271 196.505 68.206 192.599 70.5497C188.692 72.8935 184.076 74.0653 178.749 74.0653ZM178.82 63.767C181.709 63.767 184.123 62.974 186.065 61.3878C188.006 59.7779 189.45 57.6236 190.397 54.9247C191.368 52.2259 191.853 49.2192 191.853 45.9048C191.853 42.5668 191.368 39.5483 190.397 36.8494C189.45 34.1269 188.006 31.9607 186.065 30.3509C184.123 28.741 181.709 27.9361 178.82 27.9361C175.861 27.9361 173.399 28.741 171.434 30.3509C169.493 31.9607 168.037 34.1269 167.066 36.8494C166.119 39.5483 165.646 42.5668 165.646 45.9048C165.646 49.2192 166.119 52.2259 167.066 54.9247C168.037 57.6236 169.493 59.7779 171.434 61.3878C173.399 62.974 175.861 63.767 178.82 63.767ZM250.562 50.0597V18.4545H263.417V73H250.953V63.3054H250.385C249.154 66.3594 247.129 68.857 244.312 70.7983C241.519 72.7396 238.074 73.7102 233.978 73.7102C230.404 73.7102 227.243 72.9171 224.497 71.331C221.774 69.7211 219.644 67.3892 218.105 64.3352C216.566 61.2576 215.797 57.5407 215.797 53.1847V18.4545H228.652V51.196C228.652 54.6525 229.599 57.3987 231.493 59.4347C233.386 61.4706 235.872 62.4886 238.95 62.4886C240.844 62.4886 242.679 62.027 244.454 61.1037C246.23 60.1804 247.686 58.8073 248.822 56.9844C249.982 55.1378 250.562 52.8295 250.562 50.0597ZM303.874 18.4545V28.3977H272.517V18.4545H303.874ZM280.259 5.38636H293.114V56.5938C293.114 58.322 293.374 59.6477 293.895 60.571C294.439 61.4706 295.15 62.0862 296.026 62.4176C296.902 62.7491 297.872 62.9148 298.938 62.9148C299.742 62.9148 300.476 62.8556 301.139 62.7372C301.826 62.6188 302.347 62.5123 302.702 62.4176L304.868 72.4673C304.181 72.7041 303.199 72.9645 301.92 73.2486C300.666 73.5327 299.127 73.6984 297.304 73.7457C294.084 73.8404 291.184 73.3551 288.604 72.2898C286.023 71.2008 283.975 69.5199 282.46 67.2472C280.969 64.9744 280.235 62.1335 280.259 58.7244V5.38636Z" fill="black"/>
</svg>
