<svg width="473" height="79" viewBox="0 0 473 79" fill="none" xmlns="http://www.w3.org/2000/svg">
<rect opacity="0.7" y="23" width="473" height="48" rx="15" fill="#FDFD96"/>
<path d="M59.6974 24.2656C59.366 21.1643 57.9692 18.7495 55.5071 17.0213C53.0687 15.2931 49.8963 14.429 45.9901 14.429C43.2438 14.429 40.8883 14.8433 38.9233 15.6719C36.9583 16.5005 35.455 17.625 34.4134 19.0455C33.3717 20.4659 32.839 22.0876 32.8153 23.9105C32.8153 25.4257 33.1586 26.7396 33.8452 27.8523C34.5554 28.965 35.5142 29.9119 36.7216 30.6932C37.929 31.4508 39.2666 32.09 40.7344 32.6108C42.2022 33.1316 43.6818 33.5696 45.1733 33.9247L51.9915 35.6293C54.7377 36.2685 57.3774 37.1326 59.9105 38.2216C62.4673 39.3106 64.7519 40.6837 66.7642 42.3409C68.8002 43.9981 70.41 45.9986 71.5938 48.3423C72.7775 50.6861 73.3693 53.4323 73.3693 56.581C73.3693 60.8423 72.2803 64.5947 70.1023 67.8381C67.9242 71.0578 64.7756 73.5791 60.6562 75.402C56.5606 77.2012 51.6009 78.1009 45.777 78.1009C40.1188 78.1009 35.2064 77.2249 31.0398 75.473C26.8968 73.7211 23.6534 71.1643 21.3097 67.8026C18.9896 64.4408 17.7348 60.3452 17.5455 55.5156H30.5071C30.6965 58.0488 31.4777 60.1558 32.8509 61.8366C34.224 63.5175 36.0114 64.7723 38.2131 65.6009C40.4384 66.4295 42.9242 66.8438 45.6705 66.8438C48.535 66.8438 51.0445 66.4176 53.1989 65.5653C55.3769 64.6894 57.0814 63.482 58.3125 61.9432C59.5436 60.3807 60.1709 58.5578 60.1946 56.4744C60.1709 54.5805 59.6146 53.018 58.5256 51.7869C57.4366 50.5322 55.9096 49.4905 53.9446 48.6619C52.0033 47.8097 49.7306 47.0521 47.1264 46.3892L38.8523 44.2585C32.8627 42.7197 28.1278 40.3878 24.6477 37.2628C21.1913 34.1141 19.4631 29.9356 19.4631 24.7273C19.4631 20.4422 20.6231 16.6899 22.9432 13.4702C25.2869 10.2505 28.4711 7.75284 32.4957 5.97727C36.5204 4.17803 41.0777 3.27841 46.1676 3.27841C51.3286 3.27841 55.8504 4.17803 59.733 5.97727C63.6392 7.75284 66.705 10.2268 68.9304 13.3991C71.1558 16.5478 72.304 20.17 72.375 24.2656H59.6974ZM100.243 78.1009C96.7861 78.1009 93.6729 77.4853 90.9031 76.2543C88.1568 74.9995 85.9788 73.1529 84.369 70.7145C82.7828 68.276 81.9897 65.2694 81.9897 61.6946C81.9897 58.617 82.5579 56.072 83.6942 54.0597C84.8306 52.0473 86.3813 50.4375 88.3462 49.2301C90.3112 48.0227 92.5247 47.1113 94.9869 46.4957C97.4727 45.8565 100.041 45.3949 102.693 45.1108C105.889 44.7794 108.481 44.4834 110.47 44.223C112.458 43.9389 113.903 43.5128 114.802 42.9446C115.725 42.3527 116.187 41.4413 116.187 40.2102V39.9972C116.187 37.322 115.394 35.2505 113.808 33.7827C112.222 32.3149 109.937 31.581 106.954 31.581C103.806 31.581 101.308 32.2675 99.4613 33.6406C97.6384 35.0137 96.4073 36.6354 95.7681 38.5057L83.7653 36.8011C84.7122 33.4867 86.2747 30.7169 88.4528 28.4915C90.6308 26.2424 93.2942 24.5616 96.4428 23.4489C99.5915 22.3125 103.072 21.7443 106.883 21.7443C109.511 21.7443 112.127 22.0521 114.731 22.6676C117.335 23.2831 119.715 24.3011 121.869 25.7216C124.023 27.1184 125.752 29.0241 127.054 31.4389C128.379 33.8537 129.042 36.8722 129.042 40.4943V77H116.684V69.5071H116.258C115.477 71.0223 114.376 72.4427 112.956 73.7685C111.559 75.0705 109.795 76.1241 107.664 76.929C105.557 77.7102 103.083 78.1009 100.243 78.1009ZM103.581 68.6548C106.161 68.6548 108.398 68.1458 110.292 67.1278C112.186 66.0862 113.642 64.7131 114.66 63.0085C115.702 61.304 116.223 59.4455 116.223 57.4332V51.0057C115.82 51.3371 115.134 51.6449 114.163 51.929C113.216 52.2131 112.151 52.4616 110.967 52.6747C109.783 52.8878 108.611 53.0772 107.451 53.2429C106.291 53.4086 105.285 53.5507 104.433 53.669C102.515 53.9294 100.799 54.3556 99.2837 54.9474C97.7686 55.5393 96.573 56.3679 95.6971 57.4332C94.8211 58.4749 94.3832 59.8243 94.3832 61.4815C94.3832 63.849 95.2473 65.6364 96.9755 66.8438C98.7037 68.0511 100.905 68.6548 103.581 68.6548ZM169.596 22.4545V32.3977H137.352V22.4545H169.596ZM145.413 77V17.3054C145.413 13.6359 146.171 10.5819 147.686 8.14346C149.225 5.70502 151.284 3.8821 153.865 2.67471C156.445 1.46733 159.31 0.863631 162.458 0.863631C164.684 0.863631 166.661 1.04119 168.389 1.39631C170.117 1.75142 171.395 2.07102 172.224 2.35511L169.667 12.2983C169.123 12.1326 168.436 11.9669 167.608 11.8011C166.779 11.6117 165.856 11.517 164.838 11.517C162.447 11.517 160.754 12.0971 159.76 13.2571C158.789 14.3935 158.304 16.027 158.304 18.1577V77H145.413ZM201.761 78.0653C196.292 78.0653 191.569 76.929 187.592 74.6562C183.638 72.3598 180.596 69.1165 178.465 64.9261C176.335 60.7121 175.269 55.7524 175.269 50.0469C175.269 44.4361 176.335 39.5118 178.465 35.2741C180.62 31.0128 183.626 27.6984 187.485 25.331C191.344 22.9399 195.878 21.7443 201.086 21.7443C204.448 21.7443 207.62 22.2888 210.603 23.3778C213.61 24.4432 216.261 26.1004 218.558 28.3494C220.878 30.5985 222.701 33.4631 224.026 36.9432C225.352 40.3996 226.015 44.5189 226.015 49.3011V53.2429H181.306V44.5781H213.692C213.669 42.116 213.136 39.9261 212.094 38.0085C211.053 36.0672 209.597 34.5402 207.727 33.4276C205.88 32.3149 203.726 31.7585 201.263 31.7585C198.636 31.7585 196.327 32.3977 194.339 33.6761C192.35 34.9309 190.799 36.5881 189.687 38.6477C188.598 40.6837 188.041 42.9209 188.018 45.3594V52.9233C188.018 56.0956 188.598 58.8182 189.758 61.0909C190.918 63.34 192.54 65.0682 194.623 66.2756C196.706 67.4593 199.145 68.0511 201.938 68.0511C203.808 68.0511 205.501 67.7907 207.016 67.2699C208.531 66.7254 209.845 65.9323 210.958 64.8906C212.071 63.849 212.911 62.5587 213.479 61.0199L225.482 62.3693C224.725 65.5417 223.281 68.3116 221.15 70.679C219.043 73.0227 216.344 74.8456 213.053 76.1477C209.763 77.4261 205.998 78.0653 201.761 78.0653ZM324.515 28.8111H311.233C310.855 26.633 310.156 24.7036 309.138 23.0227C308.12 21.3182 306.854 19.8741 305.338 18.6903C303.823 17.5066 302.095 16.6188 300.154 16.027C298.236 15.4115 296.165 15.1037 293.939 15.1037C289.986 15.1037 286.482 16.098 283.428 18.0866C280.374 20.0516 277.983 22.9399 276.255 26.7514C274.526 30.5393 273.662 35.1676 273.662 40.6364C273.662 46.1998 274.526 50.8873 276.255 54.6989C278.007 58.4867 280.398 61.3513 283.428 63.2926C286.482 65.2102 289.974 66.169 293.904 66.169C296.082 66.169 298.118 65.8849 300.012 65.3168C301.929 64.7249 303.646 63.8608 305.161 62.7244C306.7 61.5881 307.99 60.1913 309.032 58.5341C310.097 56.8769 310.831 54.983 311.233 52.8523L324.515 52.9233C324.017 56.3797 322.94 59.6231 321.283 62.6534C319.65 65.6837 317.507 68.3589 314.855 70.679C312.204 72.9754 309.103 74.7746 305.551 76.0767C302 77.3551 298.059 77.9943 293.726 77.9943C287.334 77.9943 281.629 76.5147 276.61 73.5554C271.591 70.5961 267.637 66.3229 264.749 60.7358C261.861 55.1487 260.417 48.4489 260.417 40.6364C260.417 32.8002 261.873 26.1004 264.784 20.5369C267.696 14.9498 271.662 10.6766 276.681 7.71733C281.7 4.75805 287.382 3.27841 293.726 3.27841C297.775 3.27841 301.539 3.84659 305.019 4.98295C308.499 6.11932 311.6 7.78835 314.323 9.99006C317.045 12.1681 319.283 14.8433 321.034 18.0156C322.81 21.1643 323.97 24.7628 324.515 28.8111ZM351.707 78.1009C348.251 78.1009 345.138 77.4853 342.368 76.2543C339.622 74.9995 337.444 73.1529 335.834 70.7145C334.248 68.276 333.455 65.2694 333.455 61.6946C333.455 58.617 334.023 56.072 335.159 54.0597C336.295 52.0473 337.846 50.4375 339.811 49.2301C341.776 48.0227 343.99 47.1113 346.452 46.4957C348.938 45.8565 351.506 45.3949 354.158 45.1108C357.354 44.7794 359.946 44.4834 361.935 44.223C363.923 43.9389 365.367 43.5128 366.267 42.9446C367.19 42.3527 367.652 41.4413 367.652 40.2102V39.9972C367.652 37.322 366.859 35.2505 365.273 33.7827C363.687 32.3149 361.402 31.581 358.419 31.581C355.27 31.581 352.773 32.2675 350.926 33.6406C349.103 35.0137 347.872 36.6354 347.233 38.5057L335.23 36.8011C336.177 33.4867 337.74 30.7169 339.918 28.4915C342.096 26.2424 344.759 24.5616 347.908 23.4489C351.056 22.3125 354.536 21.7443 358.348 21.7443C360.976 21.7443 363.592 22.0521 366.196 22.6676C368.8 23.2831 371.179 24.3011 373.334 25.7216C375.488 27.1184 377.216 29.0241 378.518 31.4389C379.844 33.8537 380.507 36.8722 380.507 40.4943V77H368.149V69.5071H367.723C366.942 71.0223 365.841 72.4427 364.42 73.7685C363.024 75.0705 361.26 76.1241 359.129 76.929C357.022 77.7102 354.548 78.1009 351.707 78.1009ZM355.045 68.6548C357.626 68.6548 359.863 68.1458 361.757 67.1278C363.651 66.0862 365.107 64.7131 366.125 63.0085C367.167 61.304 367.688 59.4455 367.688 57.4332V51.0057C367.285 51.3371 366.598 51.6449 365.628 51.929C364.681 52.2131 363.616 52.4616 362.432 52.6747C361.248 52.8878 360.076 53.0772 358.916 53.2429C357.756 53.4086 356.75 53.5507 355.898 53.669C353.98 53.9294 352.264 54.3556 350.749 54.9474C349.233 55.5393 348.038 56.3679 347.162 57.4332C346.286 58.4749 345.848 59.8243 345.848 61.4815C345.848 63.849 346.712 65.6364 348.44 66.8438C350.169 68.0511 352.37 68.6548 355.045 68.6548ZM394.001 77V4.27273H406.857V31.4744H407.389C408.052 30.1487 408.987 28.7401 410.195 27.2486C411.402 25.7334 413.036 24.4432 415.095 23.3778C417.155 22.2888 419.783 21.7443 422.979 21.7443C427.193 21.7443 430.992 22.8215 434.378 24.9759C437.787 27.1065 440.486 30.267 442.474 34.4574C444.487 38.6241 445.493 43.7377 445.493 49.7983C445.493 55.7879 444.51 60.8778 442.545 65.0682C440.58 69.2585 437.905 72.4545 434.52 74.6562C431.134 76.858 427.299 77.9588 423.014 77.9588C419.889 77.9588 417.297 77.438 415.237 76.3963C413.178 75.3546 411.52 74.0999 410.266 72.6321C409.035 71.1406 408.076 69.732 407.389 68.4062H406.643V77H394.001ZM406.608 49.7273C406.608 53.2547 407.105 56.3442 408.099 58.9957C409.117 61.6473 410.573 63.7187 412.467 65.2102C414.385 66.678 416.705 67.4119 419.428 67.4119C422.268 67.4119 424.648 66.6544 426.565 65.1392C428.483 63.6004 429.927 61.5052 430.898 58.8537C431.892 56.1785 432.389 53.1364 432.389 49.7273C432.389 46.3419 431.904 43.3352 430.933 40.7074C429.963 38.0795 428.518 36.0199 426.601 34.5284C424.683 33.0369 422.292 32.2912 419.428 32.2912C416.681 32.2912 414.349 33.0133 412.432 34.4574C410.514 35.9015 409.058 37.9257 408.064 40.5298C407.093 43.134 406.608 46.1998 406.608 49.7273Z" fill="black"/>
</svg>
