<svg width="464" height="79" viewBox="0 0 464 79" fill="none" xmlns="http://www.w3.org/2000/svg">
<rect opacity="0.7" y="23" width="464" height="48" rx="15" fill="#FDFD96"/>
<path d="M59.6974 24.2656C59.366 21.1643 57.9692 18.7495 55.5071 17.0213C53.0687 15.2931 49.8963 14.429 45.9901 14.429C43.2438 14.429 40.8883 14.8433 38.9233 15.6719C36.9583 16.5005 35.455 17.625 34.4134 19.0455C33.3717 20.4659 32.839 22.0876 32.8153 23.9105C32.8153 25.4257 33.1586 26.7396 33.8452 27.8523C34.5554 28.965 35.5142 29.9119 36.7216 30.6932C37.929 31.4508 39.2666 32.09 40.7344 32.6108C42.2022 33.1316 43.6818 33.5696 45.1733 33.9247L51.9915 35.6293C54.7377 36.2685 57.3774 37.1326 59.9105 38.2216C62.4673 39.3106 64.7519 40.6837 66.7642 42.3409C68.8002 43.9981 70.41 45.9986 71.5938 48.3423C72.7775 50.6861 73.3693 53.4323 73.3693 56.581C73.3693 60.8423 72.2803 64.5947 70.1023 67.8381C67.9242 71.0578 64.7756 73.5791 60.6562 75.402C56.5606 77.2012 51.6009 78.1009 45.777 78.1009C40.1188 78.1009 35.2064 77.2249 31.0398 75.473C26.8968 73.7211 23.6534 71.1643 21.3097 67.8026C18.9896 64.4408 17.7348 60.3452 17.5455 55.5156H30.5071C30.6965 58.0488 31.4777 60.1558 32.8509 61.8366C34.224 63.5175 36.0114 64.7723 38.2131 65.6009C40.4384 66.4295 42.9242 66.8438 45.6705 66.8438C48.535 66.8438 51.0445 66.4176 53.1989 65.5653C55.3769 64.6894 57.0814 63.482 58.3125 61.9432C59.5436 60.3807 60.1709 58.5578 60.1946 56.4744C60.1709 54.5805 59.6146 53.018 58.5256 51.7869C57.4366 50.5322 55.9096 49.4905 53.9446 48.6619C52.0033 47.8097 49.7306 47.0521 47.1264 46.3892L38.8523 44.2585C32.8627 42.7197 28.1278 40.3878 24.6477 37.2628C21.1913 34.1141 19.4631 29.9356 19.4631 24.7273C19.4631 20.4422 20.6231 16.6899 22.9432 13.4702C25.2869 10.2505 28.4711 7.75284 32.4957 5.97727C36.5204 4.17803 41.0777 3.27841 46.1676 3.27841C51.3286 3.27841 55.8504 4.17803 59.733 5.97727C63.6392 7.75284 66.705 10.2268 68.9304 13.3991C71.1558 16.5478 72.304 20.17 72.375 24.2656H59.6974ZM108.694 78.0653C103.225 78.0653 98.5025 76.929 94.5252 74.6562C90.5716 72.3598 87.5295 69.1165 85.3988 64.9261C83.2681 60.7121 82.2028 55.7524 82.2028 50.0469C82.2028 44.4361 83.2681 39.5118 85.3988 35.2741C87.5531 31.0128 90.5598 27.6984 94.4187 25.331C98.2776 22.9399 102.811 21.7443 108.02 21.7443C111.381 21.7443 114.554 22.2888 117.537 23.3778C120.543 24.4432 123.195 26.1004 125.491 28.3494C127.811 30.5985 129.634 33.4631 130.96 36.9432C132.286 40.3996 132.949 44.5189 132.949 49.3011V53.2429H88.2397V44.5781H120.626C120.602 42.116 120.07 39.9261 119.028 38.0085C117.986 36.0672 116.53 34.5402 114.66 33.4276C112.814 32.3149 110.659 31.7585 108.197 31.7585C105.569 31.7585 103.261 32.3977 101.272 33.6761C99.2837 34.9309 97.7331 36.5881 96.6204 38.6477C95.5314 40.6837 94.975 42.9209 94.9513 45.3594V52.9233C94.9513 56.0956 95.5314 58.8182 96.6914 61.0909C97.8514 63.34 99.4731 65.0682 101.556 66.2756C103.64 67.4593 106.078 68.0511 108.872 68.0511C110.742 68.0511 112.435 67.7907 113.95 67.2699C115.465 66.7254 116.779 65.9323 117.892 64.8906C119.004 63.849 119.845 62.5587 120.413 61.0199L132.416 62.3693C131.658 65.5417 130.214 68.3116 128.083 70.679C125.976 73.0227 123.278 74.8456 119.987 76.1477C116.696 77.4261 112.932 78.0653 108.694 78.0653ZM143.824 77V22.4545H156.288V31.5455H156.857C157.851 28.3968 159.555 25.9702 161.97 24.2656C164.409 22.5374 167.19 21.6733 170.315 21.6733C171.026 21.6733 171.819 21.7088 172.695 21.7798C173.594 21.8272 174.34 21.91 174.932 22.0284V33.8537C174.387 33.6643 173.523 33.4986 172.339 33.3565C171.179 33.1908 170.055 33.108 168.966 33.108C166.622 33.108 164.515 33.6169 162.645 34.6349C160.798 35.6293 159.342 37.0142 158.277 38.7898C157.212 40.5653 156.679 42.6132 156.679 44.9332V77H143.824ZM233.854 22.4545L214.429 77H200.225L180.8 22.4545H194.507L207.043 62.973H207.611L220.182 22.4545H233.854ZM242.75 77V22.4545H255.605V77H242.75ZM249.213 14.7131C247.177 14.7131 245.425 14.0384 243.957 12.6889C242.489 11.3158 241.755 9.67045 241.755 7.75284C241.755 5.81155 242.489 4.16619 243.957 2.81676C245.425 1.44365 247.177 0.7571 249.213 0.7571C251.272 0.7571 253.024 1.44365 254.468 2.81676C255.936 4.16619 256.67 5.81155 256.67 7.75284C256.67 9.67045 255.936 11.3158 254.468 12.6889C253.024 14.0384 251.272 14.7131 249.213 14.7131ZM292.616 78.0653C287.171 78.0653 282.496 76.8698 278.589 74.4787C274.707 72.0876 271.712 68.785 269.605 64.571C267.522 60.3333 266.48 55.4564 266.48 49.9403C266.48 44.4006 267.545 39.5118 269.676 35.2741C271.807 31.0128 274.813 27.6984 278.696 25.331C282.602 22.9399 287.219 21.7443 292.545 21.7443C296.973 21.7443 300.891 22.5611 304.3 24.1946C307.732 25.8045 310.467 28.089 312.503 31.0483C314.539 33.9839 315.699 37.4167 315.983 41.3466H303.696C303.199 38.7187 302.015 36.5289 300.145 34.777C298.298 33.0014 295.824 32.1136 292.723 32.1136C290.095 32.1136 287.787 32.8239 285.798 34.2443C283.81 35.6411 282.259 37.6534 281.146 40.2812C280.057 42.9091 279.513 46.0578 279.513 49.7273C279.513 53.4441 280.057 56.6402 281.146 59.3153C282.235 61.9669 283.762 64.0147 285.727 65.4588C287.716 66.8793 290.048 67.5895 292.723 67.5895C294.617 67.5895 296.31 67.2344 297.801 66.5241C299.316 65.7902 300.583 64.7367 301.601 63.3636C302.619 61.9905 303.317 60.3215 303.696 58.3565H315.983C315.675 62.2154 314.539 65.6364 312.574 68.6193C310.609 71.5786 307.934 73.8987 304.548 75.5795C301.163 77.2367 297.186 78.0653 292.616 78.0653ZM350.686 78.0653C345.218 78.0653 340.495 76.929 336.517 74.6562C332.564 72.3598 329.522 69.1165 327.391 64.9261C325.26 60.7121 324.195 55.7524 324.195 50.0469C324.195 44.4361 325.26 39.5118 327.391 35.2741C329.545 31.0128 332.552 27.6984 336.411 25.331C340.27 22.9399 344.803 21.7443 350.012 21.7443C353.373 21.7443 356.546 22.2888 359.529 23.3778C362.535 24.4432 365.187 26.1004 367.483 28.3494C369.803 30.5985 371.626 33.4631 372.952 36.9432C374.278 40.3996 374.941 44.5189 374.941 49.3011V53.2429H330.232V44.5781H362.618C362.595 42.116 362.062 39.9261 361.02 38.0085C359.979 36.0672 358.523 34.5402 356.652 33.4276C354.806 32.3149 352.651 31.7585 350.189 31.7585C347.561 31.7585 345.253 32.3977 343.265 33.6761C341.276 34.9309 339.725 36.5881 338.613 38.6477C337.524 40.6837 336.967 42.9209 336.944 45.3594V52.9233C336.944 56.0956 337.524 58.8182 338.684 61.0909C339.844 63.34 341.465 65.0682 343.549 66.2756C345.632 67.4593 348.07 68.0511 350.864 68.0511C352.734 68.0511 354.427 67.7907 355.942 67.2699C357.457 66.7254 358.771 65.9323 359.884 64.8906C360.997 63.849 361.837 62.5587 362.405 61.0199L374.408 62.3693C373.65 65.5417 372.206 68.3116 370.076 70.679C367.969 73.0227 365.27 74.8456 361.979 76.1477C358.688 77.4261 354.924 78.0653 350.686 78.0653ZM428.927 36.8722L417.208 38.1506C416.877 36.9669 416.297 35.8542 415.468 34.8125C414.663 33.7708 413.574 32.9304 412.201 32.2912C410.828 31.652 409.147 31.3324 407.158 31.3324C404.483 31.3324 402.234 31.9124 400.411 33.0724C398.612 34.2325 397.724 35.7358 397.748 37.5824C397.724 39.1686 398.304 40.4588 399.488 41.4531C400.695 42.4474 402.684 43.2642 405.454 43.9034L414.758 45.892C419.919 47.0047 423.754 48.7685 426.263 51.1832C428.797 53.598 430.075 56.7585 430.099 60.6648C430.075 64.0975 429.069 67.1278 427.08 69.7557C425.115 72.3598 422.381 74.3958 418.877 75.8636C415.373 77.3314 411.349 78.0653 406.803 78.0653C400.127 78.0653 394.753 76.6686 390.681 73.875C386.609 71.0578 384.183 67.1397 383.401 62.1207L395.937 60.9134C396.505 63.3755 397.712 65.2339 399.559 66.4886C401.406 67.7434 403.808 68.3707 406.768 68.3707C409.822 68.3707 412.272 67.7434 414.119 66.4886C415.989 65.2339 416.924 63.6832 416.924 61.8366C416.924 60.2741 416.32 58.9839 415.113 57.9659C413.929 56.9479 412.083 56.1667 409.573 55.6222L400.269 53.669C395.037 52.58 391.166 50.7453 388.657 48.1648C386.147 45.5606 384.905 42.2699 384.928 38.2926C384.905 34.9309 385.816 32.0189 387.663 29.5568C389.533 27.071 392.125 25.1534 395.44 23.804C398.778 22.4309 402.625 21.7443 406.981 21.7443C413.373 21.7443 418.404 23.1056 422.073 25.8281C425.766 28.5507 428.051 32.232 428.927 36.8722Z" fill="black"/>
</svg>
