<svg width="360" height="95" viewBox="0 0 360 95" fill="none" xmlns="http://www.w3.org/2000/svg">
<rect opacity="0.7" y="19" width="360" height="48" rx="15" fill="#FDFD96"/>
<path d="M16.9773 11.3168V0.272725H75.0028V11.3168H52.5241V73H39.456V11.3168H16.9773ZM93.8949 74.1009C90.4384 74.1009 87.3253 73.4853 84.5554 72.2543C81.8092 70.9995 79.6312 69.1529 78.0213 66.7145C76.4351 64.276 75.642 61.2694 75.642 57.6946C75.642 54.617 76.2102 52.072 77.3466 50.0597C78.483 48.0473 80.0336 46.4375 81.9986 45.2301C83.9635 44.0227 86.1771 43.1113 88.6392 42.4957C91.125 41.8565 93.6937 41.3949 96.3452 41.1108C99.5412 40.7794 102.134 40.4834 104.122 40.223C106.111 39.9389 107.555 39.5128 108.455 38.9446C109.378 38.3527 109.839 37.4413 109.839 36.2102V35.9972C109.839 33.322 109.046 31.2505 107.46 29.7827C105.874 28.3149 103.589 27.581 100.607 27.581C97.4579 27.581 94.9602 28.2675 93.1136 29.6406C91.2907 31.0137 90.0597 32.6354 89.4205 34.5057L77.4176 32.8011C78.3646 29.4867 79.9271 26.7169 82.1051 24.4915C84.2831 22.2424 86.9465 20.5616 90.0952 19.4489C93.2438 18.3125 96.724 17.7443 100.536 17.7443C103.163 17.7443 105.779 18.0521 108.384 18.6676C110.988 19.2831 113.367 20.3011 115.521 21.7216C117.676 23.1184 119.404 25.0241 120.706 27.4389C122.032 29.8537 122.695 32.8722 122.695 36.4943V73H110.337V65.5071H109.911C109.129 67.0223 108.028 68.4427 106.608 69.7685C105.211 71.0705 103.447 72.1241 101.317 72.929C99.2098 73.7102 96.7358 74.1009 93.8949 74.1009ZM97.233 64.6548C99.8134 64.6548 102.051 64.1458 103.945 63.1278C105.839 62.0862 107.295 60.7131 108.312 59.0085C109.354 57.304 109.875 55.4455 109.875 53.4332V47.0057C109.473 47.3371 108.786 47.6449 107.815 47.929C106.868 48.2131 105.803 48.4616 104.619 48.6747C103.436 48.8878 102.264 49.0772 101.104 49.2429C99.9437 49.4086 98.9375 49.5507 98.0852 49.669C96.1676 49.9294 94.4512 50.3556 92.9361 50.9474C91.4209 51.5393 90.2254 52.3679 89.3494 53.4332C88.4735 54.4749 88.0355 55.8243 88.0355 57.4815C88.0355 59.849 88.8996 61.6364 90.6278 62.8438C92.3561 64.0511 94.5578 64.6548 97.233 64.6548ZM135.621 73V18.4545H148.085V27.5455H148.653C149.648 24.3968 151.352 21.9702 153.767 20.2656C156.205 18.5374 158.987 17.6733 162.112 17.6733C162.822 17.6733 163.616 17.7088 164.491 17.7798C165.391 17.8272 166.137 17.91 166.729 18.0284V29.8537C166.184 29.6643 165.32 29.4986 164.136 29.3565C162.976 29.1908 161.852 29.108 160.763 29.108C158.419 29.108 156.312 29.6169 154.442 30.6349C152.595 31.6293 151.139 33.0142 150.074 34.7898C149.009 36.5653 148.476 38.6132 148.476 40.9332V73H135.621ZM196.745 94.5909C192.128 94.5909 188.163 93.9635 184.848 92.7088C181.534 91.4777 178.871 89.8205 176.858 87.7372C174.846 85.6539 173.449 83.3456 172.668 80.8125L184.245 78.0071C184.766 79.0724 185.523 80.1259 186.517 81.1676C187.512 82.233 188.849 83.1089 190.53 83.7955C192.235 84.5057 194.377 84.8608 196.958 84.8608C200.604 84.8608 203.622 83.973 206.013 82.1974C208.404 80.4455 209.6 77.5573 209.6 73.5327V63.1989H208.961C208.298 64.5246 207.327 65.8859 206.049 67.2827C204.794 68.6795 203.125 69.8513 201.042 70.7983C198.982 71.7453 196.39 72.2188 193.265 72.2188C189.074 72.2188 185.275 71.2363 181.865 69.2713C178.48 67.2827 175.781 64.3234 173.769 60.3935C171.78 56.4399 170.786 51.492 170.786 45.5497C170.786 39.5601 171.78 34.5057 173.769 30.3864C175.781 26.2434 178.492 23.1065 181.901 20.9759C185.31 18.8215 189.11 17.7443 193.3 17.7443C196.496 17.7443 199.124 18.2888 201.184 19.3778C203.267 20.4432 204.924 21.7334 206.155 23.2486C207.386 24.7401 208.321 26.1487 208.961 27.4744H209.671V18.4545H222.348V73.8878C222.348 78.5516 221.236 82.4105 219.01 85.4645C216.785 88.5185 213.743 90.803 209.884 92.3182C206.025 93.8333 201.645 94.5909 196.745 94.5909ZM196.851 62.1335C199.574 62.1335 201.894 61.4706 203.811 60.1449C205.729 58.8191 207.185 56.9134 208.179 54.4276C209.174 51.9418 209.671 48.9588 209.671 45.4787C209.671 42.0459 209.174 39.0393 208.179 36.4588C207.209 33.8783 205.765 31.8778 203.847 30.4574C201.953 29.0133 199.621 28.2912 196.851 28.2912C193.987 28.2912 191.596 29.0369 189.678 30.5284C187.76 32.0199 186.316 34.0677 185.346 36.6719C184.375 39.2524 183.89 42.188 183.89 45.4787C183.89 48.8168 184.375 51.7405 185.346 54.25C186.34 56.7358 187.796 58.6771 189.713 60.0739C191.655 61.447 194.034 62.1335 196.851 62.1335ZM259.671 74.0653C254.202 74.0653 249.479 72.929 245.502 70.6562C241.548 68.3598 238.506 65.1165 236.375 60.9261C234.245 56.7121 233.179 51.7524 233.179 46.0469C233.179 40.4361 234.245 35.5118 236.375 31.2741C238.53 27.0128 241.536 23.6984 245.395 21.331C249.254 18.9399 253.788 17.7443 258.996 17.7443C262.358 17.7443 265.53 18.2888 268.513 19.3778C271.52 20.4432 274.171 22.1004 276.468 24.3494C278.788 26.5985 280.611 29.4631 281.936 32.9432C283.262 36.3996 283.925 40.5189 283.925 45.3011V49.2429H239.216V40.5781H271.603C271.579 38.116 271.046 35.9261 270.005 34.0085C268.963 32.0672 267.507 30.5402 265.637 29.4276C263.79 28.3149 261.636 27.7585 259.174 27.7585C256.546 27.7585 254.238 28.3977 252.249 29.6761C250.26 30.9309 248.71 32.5881 247.597 34.6477C246.508 36.6837 245.952 38.9209 245.928 41.3594V48.9233C245.928 52.0956 246.508 54.8182 247.668 57.0909C248.828 59.34 250.45 61.0682 252.533 62.2756C254.616 63.4593 257.055 64.0511 259.848 64.0511C261.719 64.0511 263.411 63.7907 264.926 63.2699C266.442 62.7254 267.756 61.9323 268.868 60.8906C269.981 59.849 270.821 58.5587 271.39 57.0199L283.392 58.3693C282.635 61.5417 281.191 64.3116 279.06 66.679C276.953 69.0227 274.254 70.8456 270.963 72.1477C267.673 73.4261 263.908 74.0653 259.671 74.0653ZM322.038 18.4545V28.3977H290.681V18.4545H322.038ZM298.423 5.38636H311.278V56.5938C311.278 58.322 311.538 59.6477 312.059 60.571C312.603 61.4706 313.314 62.0862 314.19 62.4176C315.066 62.7491 316.036 62.9148 317.102 62.9148C317.906 62.9148 318.64 62.8556 319.303 62.7372C319.99 62.6188 320.511 62.5123 320.866 62.4176L323.032 72.4673C322.345 72.7041 321.363 72.9645 320.085 73.2486C318.83 73.5327 317.291 73.6984 315.468 73.7457C312.248 73.8404 309.348 73.3551 306.768 72.2898C304.187 71.2008 302.139 69.5199 300.624 67.2472C299.133 64.9744 298.399 62.1335 298.423 58.7244V5.38636Z" fill="black"/>
</svg>
