<svg width="150" height="43" viewBox="0 0 220 43" fill="none" xmlns="http://www.w3.org/2000/svg">
<rect opacity="0.7" y="11" width="220" height="26" rx="5" fill="#FDFD96"/>
<path d="M22.4219 7.19531V2H53.3789V7.19531H40.8984V42H34.8828V7.19531H22.4219ZM64.3994 42.6641C62.4984 42.6641 60.7796 42.3125 59.2432 41.6094C57.7067 40.8932 56.4893 39.8581 55.5908 38.5039C54.7054 37.1497 54.2627 35.4896 54.2627 33.5234C54.2627 31.8307 54.5882 30.4375 55.2393 29.3437C55.8903 28.25 56.7692 27.3841 57.876 26.7461C58.9827 26.1081 60.2197 25.6263 61.5869 25.3008C62.9541 24.9753 64.3473 24.7279 65.7666 24.5586C67.5635 24.3503 69.0218 24.181 70.1416 24.0508C71.2614 23.9076 72.0752 23.6797 72.583 23.3672C73.0908 23.0547 73.3447 22.5469 73.3447 21.8437V21.707C73.3447 20.0013 72.863 18.6797 71.8994 17.7422C70.9489 16.8047 69.5296 16.3359 67.6416 16.3359C65.6755 16.3359 64.126 16.7721 62.9932 17.6445C61.8734 18.5039 61.0986 19.4609 60.6689 20.5156L55.1807 19.2656C55.8317 17.4427 56.7822 15.9714 58.0322 14.8516C59.2952 13.7187 60.7471 12.8984 62.3877 12.3906C64.0283 11.8698 65.7536 11.6094 67.5635 11.6094C68.7614 11.6094 70.0309 11.7526 71.3721 12.0391C72.7262 12.3125 73.9893 12.8203 75.1611 13.5625C76.346 14.3047 77.3161 15.3659 78.0713 16.7461C78.8265 18.1133 79.2041 19.8906 79.2041 22.0781V42H73.501V37.8984H73.2666C72.889 38.6536 72.3226 39.3958 71.5674 40.125C70.8122 40.8542 69.8421 41.4596 68.6572 41.9414C67.4723 42.4232 66.0531 42.6641 64.3994 42.6641ZM65.6689 37.9766C67.2835 37.9766 68.6637 37.6576 69.8096 37.0195C70.9684 36.3815 71.8473 35.5482 72.4463 34.5195C73.0583 33.4779 73.3643 32.3646 73.3643 31.1797V27.3125C73.1559 27.5208 72.7523 27.7161 72.1533 27.8984C71.5674 28.0677 70.8968 28.2174 70.1416 28.3477C69.3864 28.4648 68.6507 28.5755 67.9346 28.6797C67.2184 28.7708 66.6195 28.849 66.1377 28.9141C65.0049 29.0573 63.9697 29.2982 63.0322 29.6367C62.1077 29.9753 61.3656 30.4635 60.8057 31.1016C60.2588 31.7266 59.9854 32.5599 59.9854 33.6016C59.9854 35.0469 60.5192 36.1406 61.5869 36.8828C62.6546 37.612 64.0153 37.9766 65.6689 37.9766ZM91.5918 12L98.2129 23.6797L104.893 12H111.279L101.924 27L111.357 42H104.971L98.2129 30.7891L91.4746 42H85.0684L94.4043 27L85.1855 12H91.5918ZM117.275 42V12H123.115V42H117.275ZM120.225 7.37109C119.209 7.37109 118.337 7.03255 117.607 6.35547C116.891 5.66536 116.533 4.84505 116.533 3.89453C116.533 2.93099 116.891 2.11068 117.607 1.43359C118.337 0.743488 119.209 0.398437 120.225 0.398437C121.24 0.398437 122.106 0.743488 122.822 1.43359C123.551 2.11068 123.916 2.93099 123.916 3.89453C123.916 4.84505 123.551 5.66536 122.822 6.35547C122.106 7.03255 121.24 7.37109 120.225 7.37109ZM145.249 12V16.6875H128.296V12H145.249ZM132.944 42V8.52344C132.944 6.64844 133.354 5.09245 134.175 3.85547C134.995 2.60547 136.082 1.67448 137.437 1.0625C138.791 0.437498 140.262 0.124997 141.851 0.124997C143.022 0.124997 144.025 0.222654 144.858 0.417968C145.692 0.600259 146.31 0.76953 146.714 0.92578L145.347 5.65234C145.073 5.57422 144.722 5.48307 144.292 5.37891C143.862 5.26172 143.341 5.20312 142.729 5.20312C141.31 5.20312 140.295 5.55469 139.683 6.25781C139.084 6.96094 138.784 7.97656 138.784 9.30469V42H132.944ZM170.278 29.5586V12H176.138V42H170.396V36.8047H170.083C169.393 38.4063 168.286 39.7409 166.763 40.8086C165.252 41.8633 163.371 42.3906 161.118 42.3906C159.191 42.3906 157.485 41.9674 156.001 41.1211C154.53 40.2617 153.371 38.9922 152.524 37.3125C151.691 35.6328 151.274 33.556 151.274 31.082V12H157.114V30.3789C157.114 32.4232 157.681 34.0508 158.813 35.2617C159.946 36.4727 161.418 37.0781 163.228 37.0781C164.321 37.0781 165.409 36.8047 166.489 36.2578C167.583 35.7109 168.488 34.8841 169.204 33.7773C169.933 32.6706 170.291 31.2643 170.278 29.5586ZM189.824 2V42H183.984V2H189.824Z" fill="black"/>
</svg>
